<svg xmlns="http://www.w3.org/2000/svg" width="72" height="72" viewBox="0 0 72 72">
    <defs>
        <style>
            .prefix__cls-3{fill:#2b3b54}
        </style>
    </defs>
    <g id="prefix__Group_6372" data-name="Group 6372" transform="translate(-63.822 -448.994)">
        <path id="prefix__Rectangle_1" d="M0 0H72V72H0z" data-name="Rectangle 1" transform="translate(63.822 448.994)" style="opacity:0;fill:#d9e9f3"/>
        <circle id="prefix__Ellipse_1" cx="17.472" cy="17.472" r="17.472" data-name="Ellipse 1" transform="translate(89.871 464.478)" style="fill:#d9e9f3"/>
        <path id="prefix__Path_1" d="M101.2 498.89a1.778 1.778 0 0 1-1.211-.46 1.712 1.712 0 0 1-.147-2.356 44.213 44.213 0 0 0 7.179-11.406 60.784 60.784 0 0 0 3.336-12.734 1.473 1.473 0 0 1 1.454-1.22h3.039a1.475 1.475 0 0 1 1.435 1.827 60.055 60.055 0 0 1-5.142 14.037 62.737 62.737 0 0 1-8.613 11.735 1.768 1.768 0 0 1-1.238.576l-.092.001zm-.353-1.383a.569.569 0 0 0 .741-.029 61.58 61.58 0 0 0 8.446-11.495 58.81 58.81 0 0 0 5.03-13.746.208.208 0 0 0-.039-.181.216.216 0 0 0-.174-.084h-3.039a.216.216 0 0 0-.213.177 61.9 61.9 0 0 1-3.415 13 45.432 45.432 0 0 1-7.378 11.731.455.455 0 0 0 .041.624z" class="prefix__cls-3" data-name="Path 1" transform="translate(-3.822 -2.371)"/>
        <path id="prefix__Path_2" d="M106.294 482.5a.62.62 0 0 1-.276-.064l-27.094-13.209a.629.629 0 0 1-.29-.841l1.326-2.721a.63.63 0 0 1 .842-.29l26.659 13a.63.63 0 1 1-.552 1.132l-26.093-12.724-.774 1.588 26.527 12.935a.63.63 0 0 1-.276 1.2z" class="prefix__cls-3" data-name="Path 2" transform="translate(-1.613 -1.752)"/>
        <path id="prefix__Path_3" d="M116.2 487.326a.628.628 0 0 1-.275-.065l-2.9-1.413a.63.63 0 1 1 .552-1.132l2.332 1.137.774-1.588-2.43-1.184a.63.63 0 1 1 .552-1.132l3 1.461a.629.629 0 0 1 .29.842l-1.326 2.72a.634.634 0 0 1-.362.32.641.641 0 0 1-.207.034z" class="prefix__cls-3" data-name="Path 3" transform="translate(-5.181 -3.488)"/>
        <g id="prefix__Group_1" data-name="Group 1" transform="translate(123.645 467.038)">
            <path id="prefix__Path_4" d="M134.423 472.1h-3a.63.63 0 1 1 0-1.26h3a.63.63 0 0 1 0 1.26z" class="prefix__cls-3" data-name="Path 4" transform="translate(-130.794 -469.342)"/>
            <path id="prefix__Path_5" d="M133.09 473.434a.63.63 0 0 1-.63-.63v-3a.63.63 0 1 1 1.26 0v3a.63.63 0 0 1-.63.63z" class="prefix__cls-3" data-name="Path 5" transform="translate(-130.961 -469.176)"/>
        </g>
        <g id="prefix__Group_2" data-name="Group 2" transform="translate(69.624 487.975)">
            <path id="prefix__Path_6" d="M73.9 495.521h-3a.63.63 0 0 1 0-1.26h3a.63.63 0 0 1 0 1.26z" class="prefix__cls-3" data-name="Path 6" transform="translate(-70.269 -492.762)"/>
            <path id="prefix__Path_7" d="M72.565 496.854a.63.63 0 0 1-.63-.63v-3a.63.63 0 1 1 1.26 0v3a.63.63 0 0 1-.63.63z" class="prefix__cls-3" data-name="Path 7" transform="translate(-70.436 -492.595)"/>
        </g>
        <path id="prefix__Path_8" d="M103.363 508.618a.629.629 0 0 1-.625-.559l-.31-2.725-2.041-.163-2.362-1-2.237 2.876-5.394-6.07L87 504.126v2.605a.63.63 0 1 1-1.26 0v-3.156l4.736-4.391 5.243 5.9 1.9-2.444 3.154 1.328 2.785.174.429 3.776a.634.634 0 0 1-.627.7z" class="prefix__cls-3" data-name="Path 8" transform="translate(-2.356 -5.342)"/>
        <path id="prefix__Path_9" d="M97 500.227a.63.63 0 0 1-.567-.356l-2.254-4.64a.63.63 0 1 1 1.133-.55l2.255 4.64a.63.63 0 0 1-.291.842.64.64 0 0 1-.276.064z" class="prefix__cls-3" data-name="Path 9" transform="translate(-3.208 -4.81)"/>
        <path id="prefix__Path_10" d="M106.249 500.943a.63.63 0 0 1-.336-1.164l3.641-2.288a.63.63 0 1 1 .67 1.067l-3.641 2.287a.623.623 0 0 1-.334.098z" class="prefix__cls-3" data-name="Path 10" transform="translate(-4.431 -5.125)"/>
        <path id="prefix__Path_11" d="M112.371 505.741a.615.615 0 0 1-.276-.064l-4.1-2a.63.63 0 1 1 .553-1.132l4.1 2a.63.63 0 0 1-.276 1.2z" class="prefix__cls-3" data-name="Path 11" transform="translate(-4.647 -5.662)"/>
        <circle id="prefix__Ellipse_2" cx=".89" cy=".89" r=".89" class="prefix__cls-3" data-name="Ellipse 2" transform="translate(118.633 502.624)"/>
        <circle id="prefix__Ellipse_3" cx=".89" cy=".89" r=".89" class="prefix__cls-3" data-name="Ellipse 3" transform="translate(94.488 508.997)"/>
        <circle id="prefix__Ellipse_4" cx=".89" cy=".89" r=".89" class="prefix__cls-3" data-name="Ellipse 4" transform="translate(95.025 459.049)"/>
    </g>
</svg>
