<svg xmlns="http://www.w3.org/2000/svg" width="72" height="72" viewBox="0 0 72 72">
    <defs>
        <style>
            .prefix__cls-3{fill:#2b3b54}
        </style>
    </defs>
    <g id="prefix__Group_21" data-name="Group 21" transform="translate(-319.823 -577.461)">
        <path id="prefix__Rectangle_7" d="M0 0H72V72H0z" data-name="Rectangle 7" transform="translate(319.823 577.461)" style="opacity:0;fill:#d9e9f3"/>
        <circle id="prefix__Ellipse_23" cx="21.154" cy="21.154" r="21.154" data-name="Ellipse 23" transform="translate(321.714 582.31)" style="fill:#d9e9f3"/>
        <path id="prefix__Path_92" d="M361.532 624.266a4.708 4.708 0 1 1 4.708-4.709 4.715 4.715 0 0 1-4.708 4.709zm0-8.164a3.456 3.456 0 1 0 3.455 3.455 3.459 3.459 0 0 0-3.455-3.457z" class="prefix__cls-3" data-name="Path 92" transform="translate(-3.907 -3.948)"/>
        <path id="prefix__Path_93" d="M358.857 629.269l-3.72-1.494.79-2.244a8.187 8.187 0 0 1-1.6-1.562l-2.225.84-1.576-3.686 2.147-1.027a8.163 8.163 0 0 1-.025-2.234l-2.169-.979 1.492-3.721 2.245.791a8.134 8.134 0 0 1 1.563-1.6l-.84-2.226 3.686-1.574 1.027 2.145a8.125 8.125 0 0 1 2.234-.023l.979-2.169 3.72 1.492-.791 2.245a8.172 8.172 0 0 1 1.6 1.563l2.225-.841 1.575 3.685-2.147 1.029a8.166 8.166 0 0 1 .025 2.234l2.168.979-1.492 3.72-2.245-.791a8.156 8.156 0 0 1-1.562 1.6l.84 2.225-3.686 1.576-1.028-2.146a8.233 8.233 0 0 1-2.234.024zm-2.141-2.208l1.493.6.884-1.958.483.09a6.964 6.964 0 0 0 2.724-.03l.481-.1.928 1.937 1.479-.632-.758-2.01.405-.277a6.952 6.952 0 0 0 1.9-1.948l.268-.411 2.027.714.6-1.494-1.958-.885.09-.483a6.945 6.945 0 0 0-.03-2.723l-.1-.48 1.936-.928-.631-1.479-2.011.758-.277-.405a6.92 6.92 0 0 0-1.946-1.9l-.412-.269.714-2.026-1.493-.6-.885 1.957-.484-.089a6.977 6.977 0 0 0-2.723.029l-.481.1-.927-1.936-1.479.631.758 2.009-.405.278a6.949 6.949 0 0 0-1.9 1.947l-.268.412-2.027-.714-.6 1.493 1.958.885-.09.484a6.965 6.965 0 0 0 .03 2.724l.1.481-1.936.927.632 1.479 2.009-.758.277.405a6.988 6.988 0 0 0 1.948 1.9l.411.267z" class="prefix__cls-3" data-name="Path 93" transform="translate(-3.238 -3.279)"/>
        <path id="prefix__Path_94" d="M374.047 624.964a.627.627 0 0 1-.57-.888 13.775 13.775 0 0 0-21.114-16.5.626.626 0 0 1-.781-.978 14.867 14.867 0 0 1 9.371-3.28 15.031 15.031 0 0 1 13.663 21.282.627.627 0 0 1-.569.364z" class="prefix__cls-3" data-name="Path 94" transform="translate(-3.329 -2.73)"/>
        <path id="prefix__Path_95" d="M361.487 636.318a15.026 15.026 0 0 1-4.654-.734.626.626 0 0 1 .387-1.191 13.794 13.794 0 0 0 13.566-2.941.626.626 0 1 1 .846.924 14.987 14.987 0 0 1-10.145 3.942z" class="prefix__cls-3" data-name="Path 95" transform="translate(-3.863 -5.684)"/>
        <path id="prefix__Path_96" d="M347.258 626.037a.628.628 0 0 1-.568-.361 15.063 15.063 0 0 1-.034-12.616.626.626 0 1 1 1.138.522 13.807 13.807 0 0 0 .032 11.565.626.626 0 0 1-.568.891z" class="prefix__cls-3" data-name="Path 96" transform="translate(-2.689 -3.721)"/>
        <path id="prefix__Path_97" d="M378.4 627.906a.627.627 0 0 1-.547-.928 19.345 19.345 0 0 0-26.182-26.3.626.626 0 0 1-.6-1.1 20.6 20.6 0 0 1 27.876 28 .624.624 0 0 1-.547.328z" class="prefix__cls-3" data-name="Path 97" transform="translate(-3.266 -2.073)"/>
        <path id="prefix__Path_98" d="M361.326 642.473a20.594 20.594 0 0 1-6.009-.891.626.626 0 1 1 .365-1.2 19.341 19.341 0 0 0 5.645.836 19.124 19.124 0 0 0 12.078-4.235.626.626 0 0 1 .783.979 20.375 20.375 0 0 1-12.862 4.511z" class="prefix__cls-3" data-name="Path 98" transform="translate(-3.702 -6.272)"/>
        <path id="prefix__Path_99" d="M348.271 613.492a2.562 2.562 0 1 1 2.562-2.563 2.565 2.565 0 0 1-2.562 2.563zm0-3.872a1.309 1.309 0 1 0 1.31 1.309 1.31 1.31 0 0 0-1.31-1.309z" class="prefix__cls-3" data-name="Path 99" transform="translate(-2.734 -3.264)"/>
        <path id="prefix__Path_100" d="M373.879 632.555a2.347 2.347 0 1 1 2.347-2.347 2.35 2.35 0 0 1-2.347 2.347zm0-3.442a1.095 1.095 0 1 0 1.095 1.095 1.1 1.1 0 0 0-1.095-1.095z" class="prefix__cls-3" data-name="Path 100" transform="translate(-5.461 -5.322)"/>
        <path id="prefix__Path_101" d="M380.008 635.491a2.674 2.674 0 1 1 2.673-2.674 2.678 2.678 0 0 1-2.673 2.674zm0-4.1a1.422 1.422 0 1 0 1.421 1.422 1.423 1.423 0 0 0-1.421-1.413z" class="prefix__cls-3" data-name="Path 101" transform="translate(-6.074 -5.563)"/>
        <path id="prefix__Path_102" d="M347.779 606.179a4.02 4.02 0 1 1 4.02-4.02 4.025 4.025 0 0 1-4.02 4.02zm0-6.788a2.768 2.768 0 1 0 2.768 2.768 2.771 2.771 0 0 0-2.768-2.769z" class="prefix__cls-3" data-name="Path 102" transform="translate(-2.528 -2.184)"/>
        <path id="prefix__Path_103" d="M348.905 638.548a4.648 4.648 0 1 1 4.647-4.648 4.654 4.654 0 0 1-4.647 4.648zm0-8.043a3.4 3.4 0 1 0 3.4 3.4 3.4 3.4 0 0 0-3.4-3.4z" class="prefix__cls-3" data-name="Path 103" transform="translate(-2.58 -5.47)"/>
        <circle id="prefix__Ellipse_24" cx=".884" cy=".884" r=".884" class="prefix__cls-3" data-name="Ellipse 24" transform="translate(336.082 605.729)"/>
        <circle id="prefix__Ellipse_25" cx=".884" cy=".884" r=".884" class="prefix__cls-3" data-name="Ellipse 25" transform="translate(336.082 608.521)"/>
        <circle id="prefix__Ellipse_26" cx=".884" cy=".884" r=".884" class="prefix__cls-3" data-name="Ellipse 26" transform="translate(336.082 611.312)"/>
        <circle id="prefix__Ellipse_27" cx=".884" cy=".884" r=".884" class="prefix__cls-3" data-name="Ellipse 27" transform="translate(336.082 614.104)"/>
        <circle id="prefix__Ellipse_28" cx=".884" cy=".884" r=".884" class="prefix__cls-3" data-name="Ellipse 28" transform="translate(336.082 616.895)"/>
        <circle id="prefix__Ellipse_29" cx=".884" cy=".884" r=".884" class="prefix__cls-3" data-name="Ellipse 29" transform="translate(338.986 605.729)"/>
        <circle id="prefix__Ellipse_30" cx=".884" cy=".884" r=".884" class="prefix__cls-3" data-name="Ellipse 30" transform="translate(338.986 602.938)"/>
        <circle id="prefix__Ellipse_31" cx=".884" cy=".884" r=".884" class="prefix__cls-3" data-name="Ellipse 31" transform="translate(338.986 608.521)"/>
        <circle id="prefix__Ellipse_32" cx=".884" cy=".884" r=".884" class="prefix__cls-3" data-name="Ellipse 32" transform="translate(338.986 611.312)"/>
        <circle id="prefix__Ellipse_33" cx=".884" cy=".884" r=".884" class="prefix__cls-3" data-name="Ellipse 33" transform="translate(338.986 614.104)"/>
        <circle id="prefix__Ellipse_34" cx=".884" cy=".884" r=".884" class="prefix__cls-3" data-name="Ellipse 34" transform="translate(338.986 616.895)"/>
        <circle id="prefix__Ellipse_35" cx=".884" cy=".884" r=".884" class="prefix__cls-3" data-name="Ellipse 35" transform="translate(343.995 588.18)"/>
        <g id="prefix__Group_19" data-name="Group 19" transform="translate(379.812 592.43)">
            <path id="prefix__Path_104" d="M390.5 597.115h-2.98a.627.627 0 0 1 0-1.253h2.98a.627.627 0 0 1 0 1.253z" class="prefix__cls-3" data-name="Path 104" transform="translate(-386.895 -594.373)"/>
            <path id="prefix__Path_105" d="M389.187 598.429a.626.626 0 0 1-.626-.626v-2.98a.626.626 0 1 1 1.252 0v2.98a.627.627 0 0 1-.626.626z" class="prefix__cls-3" data-name="Path 105" transform="translate(-387.071 -594.197)"/>
        </g>
        <g id="prefix__Group_20" data-name="Group 20" transform="translate(324.001 625.433)">
            <path id="prefix__Path_106" d="M328.1 634.015h-2.98a.626.626 0 1 1 0-1.252h2.98a.626.626 0 1 1 0 1.252z" class="prefix__cls-3" data-name="Path 106" transform="translate(-324.494 -631.273)"/>
            <path id="prefix__Path_107" d="M326.786 635.329a.626.626 0 0 1-.626-.626v-2.98a.627.627 0 0 1 1.253 0v2.98a.626.626 0 0 1-.627.626z" class="prefix__cls-3" data-name="Path 107" transform="translate(-324.67 -631.097)"/>
        </g>
    </g>
</svg>
