<svg xmlns="http://www.w3.org/2000/svg" width="72" height="72" viewBox="0 0 72 72">
    <defs>
        <style>
            .prefix__cls-3{fill:#2b3b54}
        </style>
    </defs>
    <g id="prefix__Group_3" data-name="Group 3" transform="translate(-63.822 -448.994)">
        <path id="prefix__Rectangle_1" d="M0 0H72V72H0z" data-name="Rectangle 1" transform="translate(63.822 448.994)" style="opacity:0;fill:#d9e9f3"/>
        <circle id="prefix__Ellipse_1" cx="17.363" cy="17.363" r="17.363" data-name="Ellipse 1" transform="translate(90.024 464.569)" style="fill:#d9e9f3"/>
        <path id="prefix__Path_1" d="M101.19 498.715a1.767 1.767 0 0 1-1.2-.457 1.7 1.7 0 0 1-.146-2.342 43.937 43.937 0 0 0 7.135-11.335 60.4 60.4 0 0 0 3.316-12.655 1.463 1.463 0 0 1 1.445-1.213h3.02a1.466 1.466 0 0 1 1.427 1.816 59.681 59.681 0 0 1-5.11 13.95 62.347 62.347 0 0 1-8.559 11.662 1.757 1.757 0 0 1-1.231.572c-.035.002-.066.002-.097.002zm-.351-1.375a.565.565 0 0 0 .736-.029 61.2 61.2 0 0 0 8.393-11.423 58.444 58.444 0 0 0 5-13.66.207.207 0 0 0-.038-.18.215.215 0 0 0-.173-.083h-3.02a.214.214 0 0 0-.212.176 61.518 61.518 0 0 1-3.393 12.921 45.147 45.147 0 0 1-7.332 11.658.452.452 0 0 0 .041.62z" class="prefix__cls-3" data-name="Path 1" transform="translate(-3.762 -2.294)"/>
        <path id="prefix__Path_2" d="M106.121 482.395a.616.616 0 0 1-.275-.064L78.921 469.2a.625.625 0 0 1-.288-.836l1.317-2.7a.626.626 0 0 1 .837-.288l26.493 12.918a.626.626 0 1 1-.548 1.125L80.8 466.773l-.769 1.579 26.369 12.854a.626.626 0 0 1-.275 1.189z" class="prefix__cls-3" data-name="Path 2" transform="translate(-1.557 -1.723)"/>
        <path id="prefix__Path_3" d="M116.176 487.292a.624.624 0 0 1-.274-.064l-2.88-1.4a.626.626 0 1 1 .548-1.125l2.317 1.13.769-1.578-2.415-1.177a.626.626 0 1 1 .548-1.125l2.978 1.452a.626.626 0 0 1 .288.837l-1.317 2.7a.63.63 0 0 1-.36.318.637.637 0 0 1-.202.032z" class="prefix__cls-3" data-name="Path 3" transform="translate(-5.159 -3.473)"/>
        <g id="prefix__Group_1" data-name="Group 1" transform="translate(123.721 467.045)">
            <path id="prefix__Path_4" d="M134.4 472.093h-2.979a.626.626 0 1 1 0-1.252h2.979a.626.626 0 1 1 0 1.252z" class="prefix__cls-3" data-name="Path 4" transform="translate(-130.794 -469.352)"/>
            <path id="prefix__Path_5" d="M133.086 473.407a.626.626 0 0 1-.626-.626V469.8a.626.626 0 1 1 1.252 0v2.979a.626.626 0 0 1-.626.628z" class="prefix__cls-3" data-name="Path 5" transform="translate(-130.97 -469.176)"/>
        </g>
        <g id="prefix__Group_2" data-name="Group 2" transform="translate(69.588 487.99)">
            <path id="prefix__Path_6" d="M73.875 495.513H70.9a.626.626 0 0 1 0-1.252h2.98a.626.626 0 0 1 0 1.252z" class="prefix__cls-3" data-name="Path 6" transform="translate(-70.269 -492.771)"/>
            <path id="prefix__Path_7" d="M72.561 496.827a.626.626 0 0 1-.626-.626v-2.98a.626.626 0 1 1 1.252 0v2.98a.626.626 0 0 1-.626.626z" class="prefix__cls-3" data-name="Path 7" transform="translate(-70.445 -492.595)"/>
        </g>
        <path id="prefix__Path_8" d="M103.254 508.559a.626.626 0 0 1-.621-.555l-.309-2.708-2.028-.162-2.348-.989L95.725 507l-5.36-6.032L87 504.1v2.589a.626.626 0 1 1-1.252 0v-3.137l4.706-4.364 5.211 5.862 1.888-2.428 3.134 1.32 2.767.173.427 3.752a.63.63 0 0 1-.623.7z" class="prefix__cls-3" data-name="Path 8" transform="translate(-2.315 -5.3)"/>
        <path id="prefix__Path_9" d="M96.984 500.191a.626.626 0 0 1-.563-.353l-2.24-4.611a.626.626 0 1 1 1.126-.546l2.24 4.612a.626.626 0 0 1-.289.837.637.637 0 0 1-.274.061z" class="prefix__cls-3" data-name="Path 9" transform="translate(-3.199 -4.787)"/>
        <path id="prefix__Path_10" d="M106.245 500.921a.626.626 0 0 1-.334-1.156l3.619-2.273a.626.626 0 1 1 .666 1.061l-3.619 2.273a.619.619 0 0 1-.332.095z" class="prefix__cls-3" data-name="Path 10" transform="translate(-4.414 -5.111)"/>
        <path id="prefix__Path_11" d="M112.341 505.721a.611.611 0 0 1-.275-.064l-4.073-1.989a.626.626 0 1 1 .549-1.125l4.073 1.989a.626.626 0 0 1-.275 1.189z" class="prefix__cls-3" data-name="Path 11" transform="translate(-4.628 -5.648)"/>
        <circle id="prefix__Ellipse_2" cx=".884" cy=".884" r=".884" class="prefix__cls-3" data-name="Ellipse 2" transform="translate(118.642 502.632)"/>
        <circle id="prefix__Ellipse_3" cx=".884" cy=".884" r=".884" class="prefix__cls-3" data-name="Ellipse 3" transform="translate(94.493 509.072)"/>
        <circle id="prefix__Ellipse_4" cx=".884" cy=".884" r=".884" class="prefix__cls-3" data-name="Ellipse 4" transform="translate(95.03 458.986)"/>
    </g>
</svg>
