<svg xmlns="http://www.w3.org/2000/svg" width="24" height="24" viewBox="0 0 24 24">
    <g id="prefix__Group_6397" data-name="Group 6397" transform="translate(-960 -9069.5)">
        <path id="prefix__Прямоугольник_12" d="M0 0H24V24H0z" data-name="Прямоугольник 12" transform="translate(960 9069.5)" style="fill:transparent"/>
        <path id="prefix__Фигура_7" d="M968.1 9089.591a5.417 5.417 0 0 1-1.809-.336 3.228 3.228 0 0 1-1.852-1.852 5.473 5.473 0 0 1-.335-1.81c-.046-1.028-.057-1.339-.057-3.939s.011-2.913.057-3.942a5.5 5.5 0 0 1 .335-1.809 3.232 3.232 0 0 1 1.852-1.85 5.4 5.4 0 0 1 1.809-.338c1.029-.046 1.337-.055 3.942-.055s2.911.009 3.94.055a5.4 5.4 0 0 1 1.809.338 3.028 3.028 0 0 1 1.122.729 2.969 2.969 0 0 1 .728 1.12 5.36 5.36 0 0 1 .338 1.809c.046 1.029.057 1.337.057 3.942s-.011 2.911-.057 3.939a5.339 5.339 0 0 1-.338 1.81 2.976 2.976 0 0 1-.728 1.122 3.028 3.028 0 0 1-1.122.729 5.417 5.417 0 0 1-1.809.336c-1.029.048-1.337.057-3.94.057s-2.915-.007-3.942-.055zm-1.065-7.937a5.006 5.006 0 1 0 5.007-5.007 5.006 5.006 0 0 0-5.009 5.007zm9.04-5.206a1.17 1.17 0 1 0 1.17-1.17 1.172 1.172 0 0 0-1.171 1.17zm-7.284 5.2a3.25 3.25 0 1 1 3.251 3.251 3.249 3.249 0 0 1-3.252-3.25z" data-name="Фигура 7" style="fill:#738399"/>
    </g>
</svg>
