<svg xmlns="http://www.w3.org/2000/svg" id="prefix__Group_6241" width="16" height="16" data-name="Group 6241" viewBox="0 0 16 16">
    <path id="prefix__Path_133" d="M0 0h16v16H0z" data-name="Path 133" style="opacity:0;fill:#738399"/>
    <path id="prefix__Path_134" d="M11.879 6.44h.555a.555.555 0 0 1 .555.555v5.55a.555.555 0 0 1-.555.555H3.555A.555.555 0 0 1 3 12.544V6.995a.555.555 0 0 1 .555-.555h.555v-.555a3.885 3.885 0 0 1 7.769 0zM4.11 7.55v4.44h7.769V7.55zm3.33 1.11h1.11v2.22H7.44zm3.33-2.22v-.555a2.775 2.775 0 0 0-5.55 0v.555z" data-name="Path 134" transform="translate(.005 .45)" style="fill:#738399"/>
</svg>
