<svg xmlns="http://www.w3.org/2000/svg" width="24" height="24" viewBox="0 0 24 24">
    <g id="prefix__Group_6398" data-name="Group 6398" transform="translate(-1020 -9069.5)">
        <path id="prefix__Прямоугольник_12" d="M0 0H24V24H0z" data-name="Прямоугольник 12" transform="translate(1020 9069.5)" style="fill:transparent"/>
        <path id="prefix__Фигура_6" d="M1040 9085a11.386 11.386 0 0 1-3.571-.569 1.016 1.016 0 0 0-1.02.24l-2.2 2.2a15.047 15.047 0 0 1-6.59-6.59l2.2-2.211a.959.959 0 0 0 .25-1 11.363 11.363 0 0 1-.57-3.57 1 1 0 0 0-1-1H1024a1 1 0 0 0-1 1 17 17 0 0 0 17 17 1 1 0 0 0 1-1v-3.5a1 1 0 0 0-1-1zm-1-3.5h2a9 9 0 0 0-9-9v2a7 7 0 0 1 7 7zm-4 0h2a5 5 0 0 0-5-5v2a3 3 0 0 1 3 3z" data-name="Фигура 6" style="fill:#738399"/>
    </g>
</svg>
