<svg xmlns="http://www.w3.org/2000/svg" width="24" height="24" viewBox="0 0 24 24">
    <g id="prefix__Group_6396" data-name="Group 6396" transform="translate(-900 -9070)">
        <path id="prefix__Прямоугольник_12" d="M0 0H24V24H0z" data-name="Прямоугольник 12" transform="translate(900 9070)" style="fill:transparent"/>
        <path id="prefix__Фигура_3" d="M910.824 9087.375h1.2s.4 0 .5-.2a.778.778 0 0 0 .2-.5s0-1.6.7-1.8 1.7 1.6 2.693 2.2a1.975 1.975 0 0 0 1.3.4h2.683s1.4-.1.7-1.2a10.928 10.928 0 0 0-1.995-2.3c-1.7-1.6-1.5-1.3.6-4 1.2-1.6 1.7-2.6 1.6-3.1-.1-.4-1-.3-1-.3h-2.993a1 1 0 0 0-.4.1.735.735 0 0 0-.3.3 17.541 17.541 0 0 1-1.1 2.3c-1.3 2.3-1.9 2.4-2.095 2.3-.5-.3-.4-1.3-.4-2 0-2.2.3-3.1-.7-3.4a4.505 4.505 0 0 0-1.4-.1 5.6 5.6 0 0 0-2.494.3c-.3.2-.6.5-.4.6a1.39 1.39 0 0 1 .9.4 3.124 3.124 0 0 1 .3 1.4s.2 2.6-.4 2.9c-.4.2-1-.2-2.194-2.3-.6-1.1-1.1-2.2-1.1-2.2a1.4 1.4 0 0 0-.2-.3 4.439 4.439 0 0 0-.5-.2h-2.892a.969.969 0 0 0-.6.2.775.775 0 0 0 0 .5s2.195 5.194 4.788 7.891a7.586 7.586 0 0 0 4.988 2.1" data-name="Фигура 3" transform="translate(.993 -.057)" style="fill:#738399"/>
    </g>
</svg>
