<svg xmlns="http://www.w3.org/2000/svg" width="80" height="80" viewBox="0 0 80 80">
    <defs>
        <style>
            .prefix__cls-3{fill:#2b3b54}.prefix__cls-4{fill:none;stroke:#2b3b54;stroke-linecap:round;stroke-miterlimit:10;stroke-width:1.4px}
        </style>
    </defs>
    <g id="prefix__Group_6685" data-name="Group 6685" transform="translate(-447.833 -703.759)">
        <path id="prefix__Rectangle_7548" d="M0 0H80V80H0z" data-name="Rectangle 7548" transform="translate(447.833 703.759)" style="opacity:0;fill:#d9e9f3"/>
        <circle id="prefix__Ellipse_152" cx="23.504" cy="23.504" r="23.504" data-name="Ellipse 152" transform="translate(464.08 717.029)" style="fill:#d9e9f3"/>
        <g id="prefix__Group_6681" data-name="Group 6681" transform="translate(459.967 738.837)">
            <circle id="prefix__Ellipse_153" cx=".982" cy=".982" r=".982" class="prefix__cls-3" data-name="Ellipse 153" transform="translate(0 9.305)"/>
            <circle id="prefix__Ellipse_154" cx=".982" cy=".982" r=".982" class="prefix__cls-3" data-name="Ellipse 154" transform="translate(0 6.203)"/>
            <circle id="prefix__Ellipse_155" cx=".982" cy=".982" r=".982" class="prefix__cls-3" data-name="Ellipse 155" transform="translate(0 3.102)"/>
            <circle id="prefix__Ellipse_156" cx=".982" cy=".982" r=".982" class="prefix__cls-3" data-name="Ellipse 156"/>
            <circle id="prefix__Ellipse_157" cx=".982" cy=".982" r=".982" class="prefix__cls-3" data-name="Ellipse 157" transform="translate(3.227 9.305)"/>
            <circle id="prefix__Ellipse_158" cx=".982" cy=".982" r=".982" class="prefix__cls-3" data-name="Ellipse 158" transform="translate(3.227 12.406)"/>
            <circle id="prefix__Ellipse_159" cx=".982" cy=".982" r=".982" class="prefix__cls-3" data-name="Ellipse 159" transform="translate(3.227 6.203)"/>
            <circle id="prefix__Ellipse_160" cx=".982" cy=".982" r=".982" class="prefix__cls-3" data-name="Ellipse 160" transform="translate(3.227 3.102)"/>
            <circle id="prefix__Ellipse_161" cx=".982" cy=".982" r=".982" class="prefix__cls-3" data-name="Ellipse 161" transform="translate(3.227)"/>
        </g>
        <circle id="prefix__Ellipse_162" cx="9.709" cy="9.709" r="9.709" class="prefix__cls-4" data-name="Ellipse 162" transform="translate(477.926 731.846)"/>
        <path id="prefix__Path_814" d="M503.1 734.7h-2.449a14.705 14.705 0 0 0-5.626-5.724v-2.256A1.023 1.023 0 0 0 494 725.7h-12.441a1.023 1.023 0 0 0-1.023 1.023v2.255a14.705 14.705 0 0 0-5.626 5.724h-2.548a1.023 1.023 0 0 0-1.023 1.023v12.444a1.023 1.023 0 0 0 1.023 1.023h2.865a14.764 14.764 0 0 0 1.959 2.591v3.961a1.022 1.022 0 0 0 1.023 1.023h19.541a1.022 1.022 0 0 0 1.023-1.023v-4.388a14.708 14.708 0 0 0 1.578-2.164h2.749a1.023 1.023 0 0 0 1.023-1.023v-12.448a1.023 1.023 0 0 0-1.023-1.021z" class="prefix__cls-4" data-name="Path 814" transform="translate(-.146 -.137)"/>
        <path id="prefix__Path_815" d="M498.746 761.677v-1.136a1.022 1.022 0 0 0-1.023-1.023h-19.541a1.022 1.022 0 0 0-1.023 1.023v1.136a10.206 10.206 0 0 0-10.2 10.206.6.6 0 0 0 .6.6h40.784a.6.6 0 0 0 .6-.6 10.206 10.206 0 0 0-10.197-10.206z" class="prefix__cls-4" data-name="Path 815" transform="translate(-.119 -.347)"/>
        <path id="prefix__Path_816" d="M470.221 765.051c4.083 2.351 10.516 3.868 17.752 3.868 7.361 0 13.89-1.569 17.96-3.99" class="prefix__cls-4" data-name="Path 816" transform="translate(-.139 -.381)"/>
        <circle id="prefix__Ellipse_163" cx=".982" cy=".982" r=".982" class="prefix__cls-3" data-name="Ellipse 163" transform="translate(479.932 763.936)"/>
        <circle id="prefix__Ellipse_164" cx=".982" cy=".982" r=".982" class="prefix__cls-3" data-name="Ellipse 164" transform="translate(493.543 763.936)"/>
        <g id="prefix__Group_6682" data-name="Group 6682" transform="translate(480.645 734.562)">
            <path id="prefix__Path_817" d="M494.407 744.215a6.979 6.979 0 0 0-9.006-9" class="prefix__cls-4" data-name="Path 817" transform="translate(-480.879 -734.755)"/>
            <path id="prefix__Path_818" d="M481.713 738.408a6.988 6.988 0 0 0 9.49 9.489" class="prefix__cls-4" data-name="Path 818" transform="translate(-480.851 -734.778)"/>
        </g>
        <g id="prefix__Group_6683" data-name="Group 6683" transform="translate(453.44 766.882)">
            <path id="prefix__Line_164" d="M0 0L3.311 0" class="prefix__cls-4" data-name="Line 164" transform="translate(0 1.656)"/>
            <path id="prefix__Line_165" d="M0 3.311L0 0" class="prefix__cls-4" data-name="Line 165" transform="translate(1.656)"/>
        </g>
        <g id="prefix__Group_6684" data-name="Group 6684" transform="translate(518.468 712.041)">
            <path id="prefix__Line_166" d="M0 0L3.311 0" class="prefix__cls-4" data-name="Line 166" transform="translate(0 1.656)"/>
            <path id="prefix__Line_167" d="M0 3.311L0 0" class="prefix__cls-4" data-name="Line 167" transform="translate(1.656)"/>
        </g>
        <circle id="prefix__Ellipse_165" cx=".982" cy=".982" r=".982" class="prefix__cls-3" data-name="Ellipse 165" transform="translate(519.141 775.24)"/>
        <circle id="prefix__Ellipse_166" cx=".982" cy=".982" r=".982" class="prefix__cls-3" data-name="Ellipse 166" transform="translate(465.854 717.428)"/>
    </g>
</svg>
