<svg xmlns="http://www.w3.org/2000/svg" width="80" height="80" viewBox="0 0 80 80">
    <defs>
        <style>
            .prefix__cls-3{fill:#2b3b54}
        </style>
    </defs>
    <g id="prefix__Group_6680" data-name="Group 6680" transform="translate(-391.499 -576)">
        <path id="prefix__Rectangle_7547" d="M0 0H80V79.514H0z" data-name="Rectangle 7547" transform="translate(391.499 576)" style="opacity:0;fill:#d9e9f3"/>
        <ellipse id="prefix__Ellipse_138" cx="23.504" cy="23.362" data-name="Ellipse 138" rx="23.504" ry="23.362" transform="translate(407.411 592.395)" style="fill:#d9e9f3"/>
        <g id="prefix__Group_6676" data-name="Group 6676" transform="translate(455.577 642.098)">
            <path id="prefix__Path_785" d="M544.464 773.725h-3.311a.691.691 0 1 1 0-1.383h3.311a.691.691 0 1 1 0 1.383z" class="prefix__cls-3" data-name="Path 785" transform="translate(-540.457 -770.697)"/>
            <path id="prefix__Path_786" d="M542.819 775.35a.694.694 0 0 1-.7-.691v-3.29a.7.7 0 0 1 1.391 0v3.29a.693.693 0 0 1-.691.691z" class="prefix__cls-3" data-name="Path 786" transform="translate(-540.467 -770.677)"/>
        </g>
        <g id="prefix__Group_6677" data-name="Group 6677" transform="translate(412.243 584.119)">
            <path id="prefix__Path_787" d="M500.858 715.028h-3.311a.691.691 0 1 1 0-1.383h3.311a.691.691 0 1 1 0 1.383z" class="prefix__cls-3" data-name="Path 787" transform="translate(-496.851 -711.999)"/>
            <path id="prefix__Path_788" d="M499.213 716.653a.694.694 0 0 1-.7-.691v-3.292a.7.7 0 0 1 1.391 0v3.291a.694.694 0 0 1-.691.692z" class="prefix__cls-3" data-name="Path 788" transform="translate(-496.861 -711.979)"/>
        </g>
        <ellipse id="prefix__Ellipse_139" cx=".982" cy=".977" class="prefix__cls-3" data-name="Ellipse 139" rx=".982" ry=".977" transform="translate(401.659 650.08)"/>
        <ellipse id="prefix__Ellipse_140" cx=".982" cy=".977" class="prefix__cls-3" data-name="Ellipse 140" rx=".982" ry=".977" transform="translate(465.301 598.047)"/>
        <path id="prefix__Path_790" d="M501.688 764.01h-8.223a1.161 1.161 0 0 1-1.163-1.155V745.23a1.161 1.161 0 0 1 1.163-1.156h8.223a1.161 1.161 0 0 1 1.163 1.156v17.626a1.161 1.161 0 0 1-1.163 1.154zm-7.995-1.384h7.766v-17.168h-7.766z" class="prefix__cls-3" data-name="Path 790" transform="translate(-84.58 -128.253)"/>
        <ellipse id="prefix__Ellipse_141" cx=".982" cy=".977" class="prefix__cls-3" data-name="Ellipse 141" rx=".982" ry=".977" transform="translate(412.014 630.578)"/>
        <path id="prefix__Path_791" d="M536.367 764.01h-8.224a1.161 1.161 0 0 1-1.163-1.155V745.23a1.162 1.162 0 0 1 1.163-1.156h8.224a1.162 1.162 0 0 1 1.163 1.156v17.626a1.161 1.161 0 0 1-1.163 1.154zm-7.995-1.384h7.765v-17.168h-7.765zm7.995-17.169z" class="prefix__cls-3" data-name="Path 791" transform="translate(-84.796 -128.253)"/>
        <path id="prefix__Path_792" d="M542.782 748.024h-5.89a.691.691 0 1 1 0-1.383h5.89a.691.691 0 1 1 0 1.383z" class="prefix__cls-3" data-name="Path 792" transform="translate(-84.853 -128.285)"/>
        <path id="prefix__Path_793" d="M542.782 761.675h-5.89a.691.691 0 1 1 0-1.383h5.89a.691.691 0 1 1 0 1.383z" class="prefix__cls-3" data-name="Path 793" transform="translate(-84.853 -128.452)"/>
        <path id="prefix__Path_794" d="M492.961 748.024h-5.89a.691.691 0 1 1 0-1.383h5.89a.691.691 0 1 1 0 1.383z" class="prefix__cls-3" data-name="Path 794" transform="translate(-84.543 -128.285)"/>
        <path id="prefix__Path_795" d="M492.961 761.675h-5.89a.691.691 0 1 1 0-1.383h5.89a.691.691 0 1 1 0 1.383z" class="prefix__cls-3" data-name="Path 795" transform="translate(-84.543 -128.452)"/>
        <ellipse id="prefix__Ellipse_142" cx=".982" cy=".977" class="prefix__cls-3" data-name="Ellipse 142" rx=".982" ry=".977" transform="translate(446.477 619.047)"/>
        <path id="prefix__Path_796" d="M504.4 747.992h-2.187a.691.691 0 1 1 0-1.383h1.841c.665-.771 2.735-2.536 7.769-2.536a.692.692 0 1 1 0 1.384c-5.406 0-6.811 2.173-6.824 2.195l-.2.329z" class="prefix__cls-3" data-name="Path 796" transform="translate(-84.637 -128.253)"/>
        <path id="prefix__Path_797" d="M509.24 754.192a6.378 6.378 0 0 1-4.506-1.865l-.492-.489 7.607-7.561a8.014 8.014 0 0 1 11.287 0l2.077 2.064 1.9.1a.694.694 0 0 1 .659.726.738.738 0 0 1-.73.656l-2.436-.127-2.455-2.44a6.618 6.618 0 0 0-9.319 0l-6.591 6.55a4.994 4.994 0 0 0 5.645.246l4.823-2.991.605.6a3.3 3.3 0 0 0 4.635 0l.2-.2a.7.7 0 0 1 .984 0 .69.69 0 0 1 0 .978l-.2.2a4.7 4.7 0 0 1-6.423.172l-3.89 2.411a6.408 6.408 0 0 1-3.38.97z" class="prefix__cls-3" data-name="Path 797" transform="translate(-84.654 -128.227)"/>
        <path id="prefix__Path_798" d="M522.678 765.3a2.332 2.332 0 0 1-1.648-.678l-4.835-4.8a.687.687 0 0 1 0-.978.7.7 0 0 1 .984 0l4.834 4.8a.947.947 0 0 0 1.332 0 .932.932 0 0 0 0-1.322l-9.97-9.908a.69.69 0 0 1 0-.979.7.7 0 0 1 .984 0l9.97 9.909a2.31 2.31 0 0 1 0 3.277 2.335 2.335 0 0 1-1.651.679z" class="prefix__cls-3" data-name="Path 798" transform="translate(-84.71 -128.341)"/>
        <path id="prefix__Path_799" d="M517.77 765.124a2.321 2.321 0 0 1-1.649-.68l-4.834-4.8a.689.689 0 0 1 0-.978.7.7 0 0 1 .984 0l4.835 4.8a.963.963 0 0 0 1.329 0 .931.931 0 0 0 0-1.323l-2.253-2.238a.687.687 0 0 1 0-.978.7.7 0 0 1 .984 0l2.253 2.238a2.308 2.308 0 0 1 0 3.278 2.321 2.321 0 0 1-1.649.681z" class="prefix__cls-3" data-name="Path 799" transform="translate(-84.697 -128.43)"/>
        <path id="prefix__Path_800" d="M512.994 765.1a2.332 2.332 0 0 1-1.648-.678l-3.428-3.408a.689.689 0 0 1 0-.978.7.7 0 0 1 .984 0l3.427 3.408a.947.947 0 0 0 1.332 0 .932.932 0 0 0 0-1.322l-1.549-1.54a.689.689 0 0 1 0-.979.7.7 0 0 1 .984 0l1.549 1.541a2.308 2.308 0 0 1 0 3.277 2.335 2.335 0 0 1-1.651.679z" class="prefix__cls-3" data-name="Path 800" transform="translate(-84.676 -128.441)"/>
        <path id="prefix__Path_801" d="M508.4 765.1a2.3 2.3 0 0 1-1.629-.67l-2.733-2.717-1.548-.171a.692.692 0 0 1-.613-.765.7.7 0 0 1 .768-.609l2.031.225 3.079 3.059a.917.917 0 0 0 1.29 0 .9.9 0 0 0 0-1.282l-.769-.763a.689.689 0 0 1 0-.978.7.7 0 0 1 .985 0l.768.764a2.289 2.289 0 0 1-1.629 3.907z" class="prefix__cls-3" data-name="Path 801" transform="translate(-84.639 -128.451)"/>
        <path id="prefix__Path_802" d="M523.9 762.632a.692.692 0 0 1-.508-1.164l1.474-1.571h2.789a.692.692 0 1 1 0 1.384h-2.185l-1.062 1.131a.694.694 0 0 1-.508.22z" class="prefix__cls-3" data-name="Path 802" transform="translate(-84.772 -128.447)"/>
        <g id="prefix__Group_6678" data-name="Group 6678" transform="translate(401.951 583.176)">
            <path id="prefix__Path_803" d="M525.118 715.511a.7.7 0 0 1-.343-.09.689.689 0 0 1-.26-.943l1.775-3.1a.694.694 0 0 1 1.209.682l-1.776 3.1a.694.694 0 0 1-.605.351z" class="prefix__cls-3" data-name="Path 803" transform="translate(-486.731 -711.024)"/>
            <path id="prefix__Path_804" d="M518.358 727.343a.693.693 0 0 1-.6-1.033l4.436-7.755a.694.694 0 0 1 1.209.682l-4.436 7.756a.7.7 0 0 1-.609.35z" class="prefix__cls-3" data-name="Path 804" transform="translate(-486.689 -711.112)"/>
            <path id="prefix__Path_805" d="M513.884 728.143a.7.7 0 0 1-.5-.211l-1.892-1.949a.688.688 0 0 1 .018-.978.7.7 0 0 1 .984.017l1.892 1.949a.688.688 0 0 1-.017.978.7.7 0 0 1-.485.194z" class="prefix__cls-3" data-name="Path 805" transform="translate(-486.65 -711.193)"/>
            <path id="prefix__Path_806" d="M503.4 732.425a.693.693 0 0 1-.56-1.1l4.344-5.886a.7.7 0 0 1 .972-.148.69.69 0 0 1 .15.967l-4.344 5.886a.7.7 0 0 1-.562.281z" class="prefix__cls-3" data-name="Path 806" transform="translate(-486.596 -711.197)"/>
            <path id="prefix__Path_807" d="M499.346 732.984a.688.688 0 0 1-.46-.174l-3.108-2.726a.688.688 0 0 1-.061-.976.7.7 0 0 1 .981-.06l3.108 2.727a.688.688 0 0 1 .062.975.7.7 0 0 1-.522.234z" class="prefix__cls-3" data-name="Path 807" transform="translate(-486.551 -711.243)"/>
            <path id="prefix__Path_808" d="M487.19 737.727a.692.692 0 0 1-.565-1.092l4.952-6.91a.7.7 0 0 1 .971-.163.69.69 0 0 1 .163.965l-4.952 6.91a.7.7 0 0 1-.569.29z" class="prefix__cls-3" data-name="Path 808" transform="translate(-486.495 -711.25)"/>
            <path id="prefix__Path_809" d="M494.23 731.431a2.592 2.592 0 1 1 2.609-2.592 2.6 2.6 0 0 1-2.609 2.592zm0-3.8a1.209 1.209 0 1 0 1.217 1.21 1.214 1.214 0 0 0-1.217-1.212z" class="prefix__cls-3" data-name="Path 809" transform="translate(-486.527 -711.211)"/>
            <path id="prefix__Path_810" d="M501.213 735.647a2.592 2.592 0 1 1 2.609-2.592 2.6 2.6 0 0 1-2.609 2.592zm0-3.8a1.209 1.209 0 1 0 1.217 1.209 1.214 1.214 0 0 0-1.217-1.21z" class="prefix__cls-3" data-name="Path 810" transform="translate(-486.57 -711.262)"/>
            <path id="prefix__Path_811" d="M509.849 727.2a2.592 2.592 0 1 1 2.608-2.592 2.6 2.6 0 0 1-2.608 2.592zm0-3.8a1.209 1.209 0 1 0 1.216 1.209 1.213 1.213 0 0 0-1.216-1.209z" class="prefix__cls-3" data-name="Path 811" transform="translate(-486.624 -711.159)"/>
            <path id="prefix__Path_812" d="M516.125 730.821a2.592 2.592 0 1 1 2.608-2.592 2.6 2.6 0 0 1-2.608 2.592zm0-3.8a1.209 1.209 0 1 0 1.215 1.209 1.214 1.214 0 0 0-1.215-1.21z" class="prefix__cls-3" data-name="Path 812" transform="translate(-486.663 -711.203)"/>
            <path id="prefix__Path_813" d="M523.875 719.352a2.592 2.592 0 1 1 2.608-2.592 2.6 2.6 0 0 1-2.608 2.592zm0-3.8a1.209 1.209 0 1 0 1.215 1.21 1.214 1.214 0 0 0-1.215-1.212z" class="prefix__cls-3" data-name="Path 813" transform="translate(-486.712 -711.062)"/>
        </g>
        <g id="prefix__Group_6679" data-name="Group 6679" transform="translate(446.144 595.156)">
            <ellipse id="prefix__Ellipse_143" cx=".982" cy=".977" class="prefix__cls-3" data-name="Ellipse 143" rx=".982" ry=".977" transform="translate(3.227 3.083)"/>
            <ellipse id="prefix__Ellipse_144" cx=".982" cy=".977" class="prefix__cls-3" data-name="Ellipse 144" rx=".982" ry=".977" transform="translate(3.227 6.166)"/>
            <ellipse id="prefix__Ellipse_145" cx=".982" cy=".977" class="prefix__cls-3" data-name="Ellipse 145" rx=".982" ry=".977" transform="translate(3.227 9.248)"/>
            <ellipse id="prefix__Ellipse_146" cx=".982" cy=".977" class="prefix__cls-3" data-name="Ellipse 146" rx=".982" ry=".977" transform="translate(3.227 12.331)"/>
            <ellipse id="prefix__Ellipse_147" cx=".982" cy=".977" class="prefix__cls-3" data-name="Ellipse 147" rx=".982" ry=".977" transform="translate(0 3.083)"/>
            <ellipse id="prefix__Ellipse_148" cx=".982" cy=".977" class="prefix__cls-3" data-name="Ellipse 148" rx=".982" ry=".977"/>
            <ellipse id="prefix__Ellipse_149" cx=".982" cy=".977" class="prefix__cls-3" data-name="Ellipse 149" rx=".982" ry=".977" transform="translate(0 6.166)"/>
            <ellipse id="prefix__Ellipse_150" cx=".982" cy=".977" class="prefix__cls-3" data-name="Ellipse 150" rx=".982" ry=".977" transform="translate(0 9.248)"/>
            <ellipse id="prefix__Ellipse_151" cx=".982" cy=".977" class="prefix__cls-3" data-name="Ellipse 151" rx=".982" ry=".977" transform="translate(0 12.331)"/>
        </g>
    </g>
</svg>
