<svg xmlns="http://www.w3.org/2000/svg" id="prefix__Group_6572" width="24" height="24" data-name="Group 6572" viewBox="0 0 24 24">
    <path id="prefix__Path_127" d="M0 0h24v24H0z" data-name="Path 127" style="opacity:0;fill:#adbacc"/>
    <path id="prefix__Path_128" d="M12 22a10 10 0 1 1 10-10 10 10 0 0 1-10 10zm-2.29-2.333A17.9 17.9 0 0 1 8.027 13H4.062a8.009 8.009 0 0 0 5.648 6.667zM10.03 13A15.915 15.915 0 0 0 12 19.752 15.916 15.916 0 0 0 13.97 13zm9.908 0h-3.965a17.9 17.9 0 0 1-1.683 6.667A8.009 8.009 0 0 0 19.938 13zM4.062 11h3.965A17.9 17.9 0 0 1 9.71 4.333 8.009 8.009 0 0 0 4.062 11zm5.969 0h3.938A15.9 15.9 0 0 0 12 4.248 15.916 15.916 0 0 0 10.03 11zm4.259-6.667A17.9 17.9 0 0 1 15.973 11h3.965a8.009 8.009 0 0 0-5.648-6.667z" data-name="Path 128" style="fill:#adbacc"/>
</svg>
