<svg xmlns="http://www.w3.org/2000/svg" id="prefix__Group_6279" width="16" height="16" data-name="Group 6279" viewBox="0 0 16 16">
    <path id="prefix__Path_6" d="M0 0h16v16H0z" data-name="Path 6" style="opacity:0;fill:#08ae00"/>
    <path id="prefix__Path_7" d="M11.436 6.046a.769.769 0 0 0 0 1.146l2.991 2.866H4.855a.791.791 0 0 0-.855.818.791.791 0 0 0 .855.819h9.573l-2.992 2.865a.769.769 0 0 0 0 1.146.851.851 0 0 0 1.2 0l4.444-4.257a.769.769 0 0 0 0-1.146l-4.448-4.257a.851.851 0 0 0-1.196 0z" data-name="Path 7" transform="translate(-3.733 -2.879)" style="fill:#08ae00"/>
</svg>
