<svg xmlns="http://www.w3.org/2000/svg" width="24" height="24" viewBox="0 0 24 24">
    <g id="prefix__Group_6148" data-name="Group 6148" transform="translate(-520 -1136)">
        <path id="prefix__Rectangle_7495" d="M0 0H24V24H0z" data-name="Rectangle 7495" transform="translate(520 1136)" style="fill:#fff;opacity:0"/>
        <path id="prefix__Path_3" d="M-3.37-5.988A13.576 13.576 0 0 0-1.8-4.481a5.829 5.829 0 0 0 1.251.769v.312a6.953 6.953 0 0 0-1.312.837 13.485 13.485 0 0 0-1.516 1.49H-3.9a7.941 7.941 0 0 1 1.343-2.113h-10.9v-.69h10.9q-.52-.663-.725-.984t-.608-1.128z" data-name="Path 3" transform="translate(539.46 1151.988)" style="fill:#738399"/>
    </g>
</svg>
