<svg xmlns="http://www.w3.org/2000/svg" width="24" height="24" viewBox="0 0 24 24">
    <g id="prefix__Group_6154" data-name="Group 6154" transform="translate(-400 -1328)">
        <path id="prefix__Rectangle_7496" d="M0 0H24V24H0z" data-name="Rectangle 7496" transform="translate(400 1328)" style="fill:#fff;opacity:0"/>
        <path id="prefix__Фигура_13" d="M407.943 1311.5h1.611v8h-1.611zm3.222 3.2h1.611v4.8h-1.611zm-6.443 1.6h1.611v3.2h-1.611zm6.443-7.2h-8.054v12.8h11.276v-9.6h-3.222zm-9.664-.806a.8.8 0 0 1 .8-.794h9.666l4.027 4v11.195a.8.8 0 0 1-.8.806H402.3a.8.8 0 0 1-.8-.794z" data-name="Фигура 13" transform="translate(3.5 25)" style="fill:#5060d5"/>
    </g>
</svg>
