<svg xmlns="http://www.w3.org/2000/svg" width="24" height="24" viewBox="0 0 24 24">
    <g id="prefix__Group_6138" data-name="Group 6138" transform="translate(-448 -8192)">
        <path id="prefix__Rectangle_7481" d="M0 0H24V24H0z" data-name="Rectangle 7481" transform="translate(448 8192)" style="opacity:0;fill:#fff"/>
        <path id="prefix__Фигура_708" d="M470.165 8202.453a.8.8 0 0 1-1.13-.188 15.422 15.422 0 0 0-3.112-3.118 4.645 4.645 0 0 1 .317 2.522 4.5 4.5 0 0 1-3.7 3.775 4.39 4.39 0 0 1-3.846-1.275 4.582 4.582 0 0 1-1.251-3.926 4.476 4.476 0 0 1 .183-.753 15.528 15.528 0 0 0-2.654 2.773.8.8 0 0 1-.659.345.793.793 0 0 1-.471-.154.837.837 0 0 1-.187-1.152c.152-.217 3.775-5.3 8.348-5.3s8.2 5.085 8.347 5.3a.836.836 0 0 1-.185 1.151zm-6.32-3.541a2.786 2.786 0 0 0-2-.847 2.963 2.963 0 0 0-.452.035 2.893 2.893 0 0 0-2.345 2.393 2.927 2.927 0 0 0 .8 2.508 2.8 2.8 0 0 0 2.456.812 2.893 2.893 0 0 0 2.345-2.394 2.928 2.928 0 0 0-.804-2.507zm-2 3.283a1.24 1.24 0 1 1 1.214-1.239 1.227 1.227 0 0 1-1.217 1.244z" data-name="Фигура 708" transform="translate(-1.505 3)" style="fill:#fff"/>
    </g>
</svg>
