<svg xmlns="http://www.w3.org/2000/svg" width="24" height="24" viewBox="0 0 24 24">
    <g id="prefix__Group_6141" data-name="Group 6141" transform="translate(-1091 -16)">
        <path id="prefix__Rectangle_7485" d="M0 0H24V24H0z" data-name="Rectangle 7485" transform="translate(1091 16)" style="fill:#fff;opacity:0"/>
        <path id="prefix__Фигура_7" d="M1108.6 40.09a5.446 5.446 0 0 1-1.81-.335 3.238 3.238 0 0 1-1.851-1.852 5.41 5.41 0 0 1-.336-1.81c-.047-1.029-.057-1.337-.057-3.94s.01-2.912.057-3.94a5.415 5.415 0 0 1 .336-1.81 3.228 3.228 0 0 1 1.851-1.85 5.386 5.386 0 0 1 1.81-.337c1.028-.047 1.336-.057 3.94-.057s2.911.01 3.94.057a5.4 5.4 0 0 1 1.811.337 3.226 3.226 0 0 1 1.849 1.85 5.361 5.361 0 0 1 .337 1.81c.047 1.028.057 1.336.057 3.94s-.01 2.911-.057 3.94a5.356 5.356 0 0 1-.337 1.81 3.235 3.235 0 0 1-1.849 1.852 5.457 5.457 0 0 1-1.811.335c-1.029.047-1.337.057-3.94.057s-2.913-.01-3.94-.057zm-1.067-7.937a5.007 5.007 0 1 0 5.008-5.007 5.007 5.007 0 0 0-5.009 5.007zm9.042-5.2a1.17 1.17 0 1 0 1.17-1.17 1.17 1.17 0 0 0-1.171 1.166zm-7.285 5.2a3.25 3.25 0 1 1 3.251 3.25 3.25 3.25 0 0 1-3.251-3.253z" data-name="Фигура 7" transform="translate(-9.546 -4.16)" style="fill:#adbacc"/>
    </g>
</svg>
