<svg xmlns="http://www.w3.org/2000/svg" width="160" height="48" viewBox="0 0 160 48">
    <g id="prefix__logo" transform="translate(-88 -8)">
        <path id="prefix__Rectangle_7517" d="M0 0H160V48H0z" data-name="Rectangle 7517" transform="translate(88 8)" style="fill:#fff;opacity:0"/>
        <path id="prefix__Path_137" d="M6.74-2.474H3.412L2.764 0H.183l3.776-12.086h2.233L9.994 0H7.388zm-2.8-2.034H6.2L5.072-8.815zm15.8-7.579V0h-2.449v-10.052h-2.242l-.166 4.283a14.266 14.266 0 0 1-.477 3.358A3.6 3.6 0 0 1 13.3-.589 3.076 3.076 0 0 1 11.347 0h-.6v-2.025l.282-.025a1.343 1.343 0 0 0 1.1-1 11.712 11.712 0 0 0 .419-3.217l.158-5.819zm8.209 6.856h-3.8v3.2h4.5V0h-6.942v-12.086h6.923v2.034h-4.483V-7.2h3.8zm5.62.3h-1.063V0h-2.44v-12.086h2.44v4.831h.822l2.1-4.831H38.4l-2.956 5.628L38.731 0h-2.905zm14 .9A4.52 4.52 0 0 1 46.41-.9 4.1 4.1 0 0 1 43.388.166a3.807 3.807 0 0 1-3.142-1.349 5.977 5.977 0 0 1-1.091-3.847v-2.034a5.824 5.824 0 0 1 1.129-3.836 3.869 3.869 0 0 1 3.138-1.349 3.9 3.9 0 0 1 3 1.1 5.02 5.02 0 0 1 1.166 3.171H45.14a3.255 3.255 0 0 0-.394-1.764 1.556 1.556 0 0 0-1.324-.486 1.481 1.481 0 0 0-1.386.685 4.789 4.789 0 0 0-.436 2.255v2.283a5.268 5.268 0 0 0 .4 2.474 1.479 1.479 0 0 0 1.382.672 1.6 1.6 0 0 0 1.328-.469 3.089 3.089 0 0 0 .415-1.7zm7.745-1.2h-3.8v3.2h4.5V0h-6.94v-12.086H56v2.034h-4.485V-7.2h3.8zm8.019-6.856h2.44V0h-2.44v-8l-3.559 8h-2.449v-12.086h2.449v8.01zm1.112-3.187a2.239 2.239 0 0 1-.793 1.785 3.093 3.093 0 0 1-2.088.681 3.106 3.106 0 0 1-2.1-.681 2.239 2.239 0 0 1-.793-1.785H60.4a1.034 1.034 0 0 0 .311.8 1.221 1.221 0 0 0 .859.286 1.193 1.193 0 0 0 .847-.286 1.041 1.041 0 0 0 .307-.8zm9.637 3.188v10.061h2.457v-10.061h2.44v10.061h2.424v-10.061h2.44V0H71.636v-12.086zm19.291 2.034h-2.986V0h-2.449v-10.052H85v-2.034h8.375zm6.176 7.579h-3.326L95.575 0h-2.581l3.777-12.086H99L102.805 0H100.2zm-2.8-2.034h2.258l-1.124-4.308zm13.954-5.545h-4.333v2.308h1.444a4.047 4.047 0 0 1 2.927 1.044 3.677 3.677 0 0 1 1.087 2.785 3.824 3.824 0 0 1-1.062 2.81A3.89 3.89 0 0 1 107.952 0h-4.026v-12.086h6.782zm-4.333 4.333v3.694h1.478a1.341 1.341 0 0 0 1.125-.535 2.192 2.192 0 0 0 .411-1.374 1.965 1.965 0 0 0-.4-1.282 1.383 1.383 0 0 0-1.116-.5zm10.359.789h-1.062V0h-2.44v-12.086h2.44v4.831h.822l2.1-4.831h2.972l-2.951 5.628L121.9 0h-2.905zm11.986-7.155h2.44V0h-2.44v-8l-3.561 8h-2.444v-12.086h2.449v8.01zM141.578 0h-2.432v-5.171h-3.6V0H133.1v-12.086h2.44V-7.2h3.6v-4.889h2.432z" data-name="Path 137" transform="translate(96 29)" style="fill:#36394d"/>
        <path id="prefix__Path_138" d="M1.089 0h.847l4.587-6.391V0h.858v-7.7h-.825l-4.6 6.391V-7.7h-.867zm8.327 0h.847v-2.486h3.278V0h.847v-5.687h-.847v2.453h-3.278v-2.453h-.847zm8.239 0h.858v-4.939h2.035v-.748H15.62v.748h2.035zm6.391.132a2.935 2.935 0 0 0 2.343-1.067l-.528-.473a2.353 2.353 0 0 1-1.793.8 1.987 1.987 0 0 1-2-1.892h4.51c.011-.132.011-.22.011-.3 0-1.672-.968-3.014-2.651-3.014a2.808 2.808 0 0 0-2.728 2.97A2.83 2.83 0 0 0 24.046.132zm-1.98-3.311a1.963 1.963 0 0 1 1.848-1.914 1.868 1.868 0 0 1 1.815 1.914zm6.006 4.939h.847v-2.849A2.566 2.566 0 0 0 31.1.121a2.784 2.784 0 0 0 2.717-2.959 2.781 2.781 0 0 0-2.717-2.97 2.557 2.557 0 0 0-2.178 1.265v-1.144h-.847zm2.871-2.4a2.117 2.117 0 0 1-2.057-2.2 2.127 2.127 0 0 1 2.057-2.211 2.048 2.048 0 0 1 2 2.2 2.014 2.014 0 0 1-2 2.213zm4.433.64h.847v-2.486H39.5V0h.847v-5.687H39.5v2.453h-3.277v-2.453h-.847zm9.35.132a2.935 2.935 0 0 0 2.343-1.067l-.528-.473a2.353 2.353 0 0 1-1.793.8 1.987 1.987 0 0 1-2-1.892h4.51c.011-.132.011-.22.011-.3 0-1.672-.968-3.014-2.651-3.014a2.808 2.808 0 0 0-2.728 2.97A2.83 2.83 0 0 0 44.726.132zm-1.98-3.311a1.963 1.963 0 0 1 1.848-1.914 1.868 1.868 0 0 1 1.815 1.914zM49.907 0h.858v-4.939H52.8v-.748h-4.928v.748h2.035zm3.344-2.86h3.058v-.891h-3.058zM57.97 0h.825v-4.334l2.079 2.882 2.1-2.882V0h.858v-5.687h-.814L60.9-2.7l-2.127-2.987h-.8zm9.449.121a2.493 2.493 0 0 0 2.046-.968V0h.835v-3.476a2.249 2.249 0 0 0-.594-1.672 2.524 2.524 0 0 0-1.837-.627 4.661 4.661 0 0 0-2.068.484l.253.693a3.956 3.956 0 0 1 1.727-.407c1.067 0 1.683.528 1.683 1.54v.176a5.958 5.958 0 0 0-1.738-.242c-1.441 0-2.431.638-2.431 1.859A1.912 1.912 0 0 0 67.419.121zm.165-.682c-.77 0-1.43-.418-1.43-1.133s.605-1.166 1.661-1.166a5.847 5.847 0 0 1 1.661.242v.528a1.7 1.7 0 0 1-1.892 1.529zm4.51 2.321h.847v-2.849a2.566 2.566 0 0 0 2.178 1.21 2.784 2.784 0 0 0 2.717-2.959 2.781 2.781 0 0 0-2.717-2.97 2.557 2.557 0 0 0-2.178 1.265v-1.144h-.847zm2.871-2.4a2.117 2.117 0 0 1-2.057-2.2 2.127 2.127 0 0 1 2.057-2.211 2.048 2.048 0 0 1 2 2.2 2.014 2.014 0 0 1-2 2.213zM79.4 0h.847v-1.375l1.2-1.232L83.468 0h1l-2.441-3.223L84.4-5.687h-1.042l-3.113 3.278v-3.278H79.4zm8.393.132a2.935 2.935 0 0 0 2.341-1.067l-.528-.473a2.353 2.353 0 0 1-1.793.8 1.987 1.987 0 0 1-2-1.892h4.51c.011-.132.011-.22.011-.3 0-1.672-.968-3.014-2.651-3.014a2.808 2.808 0 0 0-2.728 2.97A2.83 2.83 0 0 0 87.791.132zm-1.98-3.311a1.963 1.963 0 0 1 1.848-1.914 1.868 1.868 0 0 1 1.815 1.914zM92.972 0h.858v-4.939h2.035v-.748h-4.928v.748h2.035zM97.1 0h.814l3.386-4.5V0h.847v-5.687h-.825l-3.377 4.5v-4.5H97.1zm6.941 0h.847v-2.486h3.278V0h.847v-5.687h-.847v2.453h-3.278v-2.453h-.847zm6.859 0h.847v-4.939h3.014v-.748H110.9z" data-name="Path 138" transform="translate(96 49)" style="fill:#738399"/>
    </g>
</svg>
