<svg xmlns="http://www.w3.org/2000/svg" width="66.503" height="87.5" viewBox="0 0 66.503 87.5">
    <path id="prefix__Фигура_8" d="M766.056 5041.5v-22.982h24.709v22.982zm1.425-30.756c.3-3.354-.736-6.793.938-9.869a24.651 24.651 0 0 1 3.9-4.974c2.919-3.076 6.068-5.939 8.948-9.049a9.887 9.887 0 0 0 .716-12.411c-2.107-2.816-5.069-3.567-8.386-2.963a7.06 7.06 0 0 0-5.8 6.076 31.04 31.04 0 0 0-.424 3.716c-.072 1.241-.016 2.487-.016 3.818h-23c-.831-5.835-.31-11.429 2.776-16.581 3.974-6.638 10.1-10.407 17.362-12.515a47.469 47.469 0 0 1 27.242.006c7.86 2.337 14.085 6.912 17.052 14.763 3.064 8.112 2.21 15.853-4.048 22.328a95.665 95.665 0 0 1-8.3 6.962c-1.694 1.392-3.4 2.775-5.129 4.121a5.77 5.77 0 0 0-2.374 5.363c.033.372.005.749.005 1.207z" data-name="Фигура 8" transform="translate(-743.999 -4954.001)" style="fill:#edf5fa"/>
</svg>
