<svg xmlns="http://www.w3.org/2000/svg" id="prefix__Group_7261" width="24" height="24" data-name="Group 7261" viewBox="0 0 24 24">
    <path id="prefix__Path_820" d="M0 0h24v24H0z" data-name="Path 820" style="fill:none"/>
    <path id="prefix__Path_821" d="M13.12 17.023l-4.2-2.29a4 4 0 1 1 0-5.465l4.2-2.29a4 4 0 1 1 .959 1.755l-4.2 2.29a4.008 4.008 0 0 1 0 1.954l4.2 2.29a4 4 0 1 1-.959 1.755zM6 14a2 2 0 1 0-2-2 2 2 0 0 0 2 2zm11-6a2 2 0 1 0-2-2 2 2 0 0 0 2 2zm0 12a2 2 0 1 0-2-2 2 2 0 0 0 2 2z" data-name="Path 821" style="fill:#adbacc"/>
</svg>
