<svg xmlns="http://www.w3.org/2000/svg" id="prefix__Group_6573" width="24" height="24" data-name="Group 6573" viewBox="0 0 24 24">
    <path id="prefix__Path_125" d="M0 0h24v24H0z" data-name="Path 125" style="opacity:0;fill:#adbacc"/>
    <path id="prefix__Path_126" d="M9.366 10.682a10.558 10.558 0 0 0 3.952 3.952L14.2 13.4a1 1 0 0 1 1.294-.3 11.415 11.415 0 0 0 4.583 1.364 1 1 0 0 1 .921 1v4.462a1 1 0 0 1-.9.995A15.509 15.509 0 0 1 3.082 3.9a1 1 0 0 1 1-.9h4.457a1 1 0 0 1 1 .921A11.415 11.415 0 0 0 10.9 8.5a1 1 0 0 1-.3 1.3zm-2.522-.657l1.9-1.357A13.4 13.4 0 0 1 7.647 5H5.01C5 5.166 5 5.333 5 5.5A13.5 13.5 0 0 0 18.5 19c.167 0 .334 0 .5-.01v-2.637a13.4 13.4 0 0 1-3.668-1.1l-1.357 1.9a12.437 12.437 0 0 1-1.588-.75l-.058-.033a12.558 12.558 0 0 1-4.7-4.7l-.033-.058a12.437 12.437 0 0 1-.752-1.587z" data-name="Path 126" style="fill:#adbacc"/>
</svg>
