<svg xmlns="http://www.w3.org/2000/svg" width="24" height="24" viewBox="0 0 24 24">
    <g id="prefix__Group_6140" data-name="Group 6140" transform="translate(-1169 -16)">
        <path id="prefix__Rectangle_7483" d="M0 0H24V24H0z" data-name="Rectangle 7483" transform="translate(1169 16)" style="fill:#fff;opacity:0"/>
        <path id="prefix__Фигура_6" d="M1193 35.5a11.364 11.364 0 0 1-3.57-.57 1.019 1.019 0 0 0-1.02.24l-2.2 2.2a15.045 15.045 0 0 1-6.59-6.589l2.2-2.21a.961.961 0 0 0 .25-1 11.362 11.362 0 0 1-.57-3.57 1 1 0 0 0-1-1h-3.5a1 1 0 0 0-1 1 17 17 0 0 0 17 17 1 1 0 0 0 1-1V36.5a1 1 0 0 0-1-1zm-1-3.5h2a9 9 0 0 0-9-9v2a7 7 0 0 1 7 7zm-4 0h2a5 5 0 0 0-5-5v2a3 3 0 0 1 3 3z" data-name="Фигура 6" transform="translate(-4 -3)" style="fill:#adbacc"/>
    </g>
</svg>
