<svg xmlns="http://www.w3.org/2000/svg" width="24" height="24" viewBox="0 0 24 24">
    <g id="prefix__Group_6142" data-name="Group 6142" transform="translate(-1051 -20)">
        <path id="prefix__Rectangle_7485" d="M0 0H24V24H0z" data-name="Rectangle 7485" transform="translate(1051 20)" style="fill:#fff;opacity:0"/>
        <path id="prefix__Фигура_3" d="M1048.324 37.875h1.2s.4 0 .5-.2a.781.781 0 0 0 .2-.5s0-1.6.7-1.8 1.7 1.6 2.693 2.2a1.967 1.967 0 0 0 1.3.4h2.693s1.4-.1.7-1.2a10.94 10.94 0 0 0-1.995-2.3c-1.7-1.6-1.5-1.3.6-3.995 1.2-1.6 1.7-2.6 1.6-3.1-.1-.4-1-.3-1-.3h-2.992a1 1 0 0 0-.4.1.746.746 0 0 0-.3.3 17.56 17.56 0 0 1-1.1 2.3c-1.3 2.3-1.9 2.4-2.095 2.3-.5-.3-.4-1.3-.4-2 0-2.2.3-3.1-.7-3.4a4.515 4.515 0 0 0-1.4-.1 5.611 5.611 0 0 0-2.494.3c-.3.2-.6.5-.4.6a1.39 1.39 0 0 1 .9.4 3.12 3.12 0 0 1 .3 1.4s.2 2.6-.4 2.9c-.4.2-1-.2-2.194-2.3-.6-1.1-1.1-2.2-1.1-2.2a1.4 1.4 0 0 0-.2-.3 4.72 4.72 0 0 0-.5-.2h-2.892a.981.981 0 0 0-.6.2.772.772 0 0 0 0 .5s2.194 5.195 4.787 7.891a7.587 7.587 0 0 0 4.987 2.1" data-name="Фигура 3" transform="translate(14.493 .443)" style="fill:#adbacc"/>
    </g>
</svg>
