<svg xmlns="http://www.w3.org/2000/svg" width="21.923" height="12.5" viewBox="0 0 21.923 12.5">
    <path id="prefix__Path_208" d="M469.449 766.2h1.312s.437 0 .547-.219a.852.852 0 0 0 .219-.547s0-1.749.765-1.968 1.858 1.749 2.952 2.405a2.157 2.157 0 0 0 1.421.437h2.952s1.53-.109.765-1.312a11.969 11.969 0 0 0-2.186-2.514c-1.858-1.749-1.64-1.421.656-4.373 1.312-1.749 1.859-2.842 1.749-3.389-.109-.437-1.093-.328-1.093-.328h-3.28a1.085 1.085 0 0 0-.437.109.816.816 0 0 0-.328.328 19.087 19.087 0 0 1-1.2 2.514c-1.421 2.514-2.077 2.624-2.3 2.514-.547-.328-.437-1.421-.437-2.186 0-2.4.328-3.389-.765-3.717a5 5 0 0 0-1.53-.109 6.16 6.16 0 0 0-2.733.328c-.328.219-.656.547-.437.656a1.527 1.527 0 0 1 .984.437 3.414 3.414 0 0 1 .328 1.53s.219 2.842-.437 3.17c-.437.219-1.093-.219-2.4-2.514-.656-1.2-1.2-2.405-1.2-2.405a1.573 1.573 0 0 0-.219-.328 5.18 5.18 0 0 0-.547-.219h-3.17a1.084 1.084 0 0 0-.656.219.852.852 0 0 0 0 .547s2.405 5.685 5.247 8.636a8.319 8.319 0 0 0 5.466 2.3" data-name="Path 208" transform="translate(-458.691 -753.816)" style="fill:#fff"/>
</svg>
