<svg xmlns="http://www.w3.org/2000/svg" width="80" height="80" viewBox="0 0 80 80">
    <defs>
        <style>
            .prefix__cls-3{fill:#2b3b54}
        </style>
    </defs>
    <g id="prefix__Group_21" data-name="Group 21" transform="translate(-319.823 -577.461)">
        <path id="prefix__Rectangle_7" d="M0 0H80V80H0z" data-name="Rectangle 7" transform="translate(319.823 577.461)" style="opacity:0;fill:#d9e9f3"/>
        <circle id="prefix__Ellipse_23" cx="26.017" cy="26.017" r="26.017" data-name="Ellipse 23" transform="translate(322.149 583.425)" style="fill:#d9e9f3"/>
        <path id="prefix__Path_92" d="M362.615 626.431a5.79 5.79 0 1 1 5.79-5.792 5.8 5.8 0 0 1-5.79 5.792zm0-10.041a4.25 4.25 0 1 0 4.249 4.249 4.254 4.254 0 0 0-4.249-4.249z" class="prefix__cls-3" data-name="Path 92" transform="translate(3.408 3.444)"/>
        <path id="prefix__Path_93" d="M360.783 634.041l-4.575-1.837.971-2.76a10.063 10.063 0 0 1-1.965-1.921l-2.737 1.033-1.938-4.533 2.64-1.263a10.039 10.039 0 0 1-.031-2.748l-2.668-1.2 1.835-4.576 2.761.972A10.007 10.007 0 0 1 357 613.24l-1.033-2.738 4.533-1.936 1.263 2.638a10 10 0 0 1 2.748-.029l1.2-2.667 4.575 1.835-.972 2.761a10.052 10.052 0 0 1 1.967 1.922l2.737-1.034 1.937 4.532-2.64 1.265a10.04 10.04 0 0 1 .031 2.748l2.666 1.2-1.835 4.575-2.761-.972a10.03 10.03 0 0 1-1.921 1.965l1.033 2.737-4.528 1.941-1.264-2.639a10.127 10.127 0 0 1-2.748.03zm-2.633-2.716l1.836.737 1.087-2.408.594.111a8.564 8.564 0 0 0 3.351-.036l.592-.124 1.142 2.383 1.819-.778-.933-2.472.5-.341a8.55 8.55 0 0 0 2.342-2.4l.33-.506 2.493.878.737-1.837-2.408-1.088.111-.594a8.541 8.541 0 0 0-.037-3.349l-.123-.591 2.382-1.142-.777-1.819-2.473.933-.341-.5a8.509 8.509 0 0 0-2.394-2.341l-.507-.331.878-2.492-1.836-.737-1.088 2.407-.6-.11a8.58 8.58 0 0 0-3.349.035l-.592.124-1.141-2.381-1.819.777.933 2.471-.5.342a8.548 8.548 0 0 0-2.342 2.395l-.33.507-2.493-.878-.737 1.836 2.408 1.088-.111.6a8.566 8.566 0 0 0 .036 3.351l.124.592-2.382 1.14.778 1.819 2.471-.932.341.5a8.6 8.6 0 0 0 2.4 2.342l.506.329z" class="prefix__cls-3" data-name="Path 93" transform="translate(2.771 2.806)"/>
        <path id="prefix__Path_94" d="M379.265 629.941a.771.771 0 0 1-.7-1.092 16.942 16.942 0 0 0-25.968-20.3.77.77 0 0 1-.96-1.2 18.286 18.286 0 0 1 11.526-4.034 18.486 18.486 0 0 1 16.8 26.176.771.771 0 0 1-.698.45z" class="prefix__cls-3" data-name="Path 94" transform="translate(2.824 2.332)"/>
        <path id="prefix__Path_95" d="M362.657 637.474a18.482 18.482 0 0 1-5.724-.9.77.77 0 0 1 .476-1.465 16.965 16.965 0 0 0 16.685-3.617.77.77 0 1 1 1.041 1.136 18.432 18.432 0 0 1-12.478 4.846z" class="prefix__cls-3" data-name="Path 95" transform="translate(3.339 4.986)"/>
        <path id="prefix__Path_96" d="M347.711 629.1a.773.773 0 0 1-.7-.444 18.526 18.526 0 0 1-.042-15.517.77.77 0 1 1 1.4.642 16.981 16.981 0 0 0 .04 14.223.769.769 0 0 1-.7 1.1z" class="prefix__cls-3" data-name="Path 96" transform="translate(2.366 3.227)"/>
        <path id="prefix__Path_97" d="M384.758 634.989a.77.77 0 0 1-.673-1.141 23.793 23.793 0 0 0-32.2-32.347.77.77 0 0 1-.735-1.354 25.333 25.333 0 0 1 34.284 34.442.768.768 0 0 1-.676.4z" class="prefix__cls-3" data-name="Path 97" transform="translate(2.723 1.728)"/>
        <path id="prefix__Path_98" d="M362.81 643.766a25.333 25.333 0 0 1-7.391-1.1.77.77 0 0 1 .449-1.474 23.782 23.782 0 0 0 6.942 1.029 23.521 23.521 0 0 0 14.854-5.209.77.77 0 0 1 .962 1.2 25.058 25.058 0 0 1-15.816 5.554z" class="prefix__cls-3" data-name="Path 98" transform="translate(3.175 5.498)"/>
        <path id="prefix__Path_99" d="M348.859 614.67a3.151 3.151 0 1 1 3.151-3.153 3.155 3.155 0 0 1-3.151 3.153zm0-4.762a1.61 1.61 0 1 0 1.612 1.609 1.612 1.612 0 0 0-1.612-1.609z" class="prefix__cls-3" data-name="Path 99" transform="translate(2.398 2.863)"/>
        <path id="prefix__Path_100" d="M374.419 633.634a2.887 2.887 0 1 1 2.886-2.886 2.89 2.89 0 0 1-2.886 2.886zm0-4.233a1.346 1.346 0 1 0 1.346 1.346 1.347 1.347 0 0 0-1.346-1.347z" class="prefix__cls-3" data-name="Path 100" transform="translate(4.792 4.671)"/>
        <path id="prefix__Path_101" d="M380.623 636.721a3.289 3.289 0 1 1 3.288-3.289 3.294 3.294 0 0 1-3.288 3.289zm0-5.038a1.749 1.749 0 1 0 1.748 1.749 1.751 1.751 0 0 0-1.748-1.749z" class="prefix__cls-3" data-name="Path 101" transform="translate(5.326 4.878)"/>
        <path id="prefix__Path_102" d="M348.7 608.027a4.945 4.945 0 1 1 4.944-4.945 4.95 4.95 0 0 1-4.944 4.945zm0-8.349a3.4 3.4 0 1 0 3.4 3.4 3.408 3.408 0 0 0-3.4-3.4z" class="prefix__cls-3" data-name="Path 102" transform="translate(2.209 1.908)"/>
        <path id="prefix__Path_103" d="M349.974 640.685a5.716 5.716 0 1 1 5.716-5.717 5.724 5.724 0 0 1-5.716 5.717zm0-9.892a4.176 4.176 0 1 0 4.176 4.176 4.181 4.181 0 0 0-4.176-4.176z" class="prefix__cls-3" data-name="Path 103" transform="translate(2.251 4.772)"/>
        <circle id="prefix__Ellipse_24" cx="1.087" cy="1.087" r="1.087" class="prefix__cls-3" data-name="Ellipse 24" transform="translate(339.692 612.006)"/>
        <circle id="prefix__Ellipse_25" cx="1.087" cy="1.087" r="1.087" class="prefix__cls-3" data-name="Ellipse 25" transform="translate(339.692 615.417)"/>
        <circle id="prefix__Ellipse_26" cx="1.087" cy="1.087" r="1.087" class="prefix__cls-3" data-name="Ellipse 26" transform="translate(339.692 618.828)"/>
        <circle id="prefix__Ellipse_27" cx="1.087" cy="1.087" r="1.087" class="prefix__cls-3" data-name="Ellipse 27" transform="translate(339.692 622.24)"/>
        <circle id="prefix__Ellipse_28" cx="1.087" cy="1.087" r="1.087" class="prefix__cls-3" data-name="Ellipse 28" transform="translate(339.692 625.651)"/>
        <circle id="prefix__Ellipse_29" cx="1.087" cy="1.087" r="1.087" class="prefix__cls-3" data-name="Ellipse 29" transform="translate(343.241 612.006)"/>
        <circle id="prefix__Ellipse_30" cx="1.087" cy="1.087" r="1.087" class="prefix__cls-3" data-name="Ellipse 30" transform="translate(343.241 608.595)"/>
        <circle id="prefix__Ellipse_31" cx="1.087" cy="1.087" r="1.087" class="prefix__cls-3" data-name="Ellipse 31" transform="translate(343.241 615.417)"/>
        <circle id="prefix__Ellipse_32" cx="1.087" cy="1.087" r="1.087" class="prefix__cls-3" data-name="Ellipse 32" transform="translate(343.241 618.828)"/>
        <circle id="prefix__Ellipse_33" cx="1.087" cy="1.087" r="1.087" class="prefix__cls-3" data-name="Ellipse 33" transform="translate(343.241 622.24)"/>
        <circle id="prefix__Ellipse_34" cx="1.087" cy="1.087" r="1.087" class="prefix__cls-3" data-name="Ellipse 34" transform="translate(343.241 625.651)"/>
        <circle id="prefix__Ellipse_35" cx="1.087" cy="1.087" r="1.087" class="prefix__cls-3" data-name="Ellipse 35" transform="translate(349.362 590.645)"/>
        <g id="prefix__Group_19" data-name="Group 19" transform="translate(393.051 595.749)">
            <path id="prefix__Path_104" d="M391.33 597.4h-3.665a.771.771 0 0 1 0-1.541h3.665a.771.771 0 0 1 0 1.541z" class="prefix__cls-3" data-name="Path 104" transform="translate(-386.895 -594.031)"/>
            <path id="prefix__Path_105" d="M389.331 599.4a.77.77 0 0 1-.77-.77v-3.665a.77.77 0 0 1 1.54 0v3.665a.771.771 0 0 1-.77.77z" class="prefix__cls-3" data-name="Path 105" transform="translate(-386.728 -594.197)"/>
        </g>
        <g id="prefix__Group_20" data-name="Group 20" transform="translate(324.961 636.07)">
            <path id="prefix__Path_106" d="M328.929 634.3h-3.665a.77.77 0 0 1 0-1.54h3.665a.77.77 0 1 1 0 1.54z" class="prefix__cls-3" data-name="Path 106" transform="translate(-324.494 -630.93)"/>
            <path id="prefix__Path_107" d="M326.93 636.3a.77.77 0 0 1-.77-.77v-3.665a.771.771 0 0 1 1.541 0v3.665a.77.77 0 0 1-.771.77z" class="prefix__cls-3" data-name="Path 107" transform="translate(-324.327 -631.097)"/>
        </g>
    </g>
</svg>
