<svg xmlns="http://www.w3.org/2000/svg" width="80" height="80" viewBox="0 0 80 80">
    <defs>
        <style>
            .prefix__cls-3{fill:#2b3b54}
        </style>
    </defs>
    <g id="prefix__Group_24" data-name="Group 24" transform="translate(-449.734 -577.461)">
        <path id="prefix__Rectangle_8" d="M0 0H80V80H0z" data-name="Rectangle 8" transform="translate(449.734 577.461)" style="opacity:0;fill:#d9e9f3"/>
        <circle id="prefix__Ellipse_36" cx="26.28" cy="26.28" r="26.28" data-name="Ellipse 36" transform="translate(477.043 586.313)" style="fill:#d9e9f3"/>
        <path id="prefix__Path_108" d="M511.339 640.581h-44.99a4.419 4.419 0 0 1-4.414-4.414v-4.2h21.918v2.189h9.984v-2.189h21.918v4.2a4.419 4.419 0 0 1-4.416 4.414zm-47.849-7.058v2.643a2.861 2.861 0 0 0 2.859 2.858h44.99a2.862 2.862 0 0 0 2.86-2.858v-2.643h-18.807v2.19H482.3v-2.19z" class="prefix__cls-3" data-name="Path 108" transform="translate(.442 4.75)"/>
        <path id="prefix__Path_109" d="M503.56 619.114h-9.193a.778.778 0 0 1 0-1.556h9.193a.778.778 0 1 1 0 1.556z" class="prefix__cls-3" data-name="Path 109" transform="translate(3.845 3.284)"/>
        <g id="prefix__Group_22" data-name="Group 22" transform="translate(521.614 637.218)">
            <path id="prefix__Path_110" d="M520.008 635.628h-3.7a.778.778 0 1 1 0-1.557h3.7a.778.778 0 0 1 0 1.557z" class="prefix__cls-3" data-name="Path 110" transform="translate(-515.527 -632.221)"/>
            <path id="prefix__Path_111" d="M517.972 637.664a.779.779 0 0 1-.779-.778v-3.7a.778.778 0 0 1 1.557 0v3.7a.779.779 0 0 1-.778.778z" class="prefix__cls-3" data-name="Path 111" transform="translate(-515.342 -632.406)"/>
        </g>
        <g id="prefix__Group_23" data-name="Group 23" transform="translate(460.459 594.058)">
            <path id="prefix__Path_112" d="M464.548 596.524h-3.7a.778.778 0 1 1 0-1.556h3.7a.778.778 0 0 1 0 1.556z" class="prefix__cls-3" data-name="Path 112" transform="translate(-460.068 -593.118)"/>
            <path id="prefix__Path_113" d="M462.513 598.56a.778.778 0 0 1-.779-.778v-3.7a.778.778 0 0 1 1.557 0v3.7a.778.778 0 0 1-.778.778z" class="prefix__cls-3" data-name="Path 113" transform="translate(-459.883 -593.303)"/>
        </g>
        <path id="prefix__Path_114" d="M503.56 623.138h-9.193a.778.778 0 1 1 0-1.555h9.193a.778.778 0 1 1 0 1.555z" class="prefix__cls-3" data-name="Path 114" transform="translate(3.845 3.703)"/>
        <path id="prefix__Path_115" d="M503.56 627.375h-9.193a.778.778 0 0 1 0-1.557h9.193a.778.778 0 1 1 0 1.557z" class="prefix__cls-3" data-name="Path 115" transform="translate(3.845 4.144)"/>
        <path id="prefix__Path_116" d="M506.986 636.361a.777.777 0 0 1-.778-.778v-24.649a2.947 2.947 0 0 0-2.943-2.944.778.778 0 1 1 0-1.556 4.5 4.5 0 0 1 4.5 4.5v24.649a.777.777 0 0 1-.779.778z" class="prefix__cls-3" data-name="Path 116" transform="translate(4.792 2.029)"/>
        <path id="prefix__Path_117" d="M465.72 636.361a.778.778 0 0 1-.779-.778v-24.649a4.505 4.505 0 0 1 4.5-4.5h4.394a.778.778 0 1 1 0 1.556h-4.394a2.946 2.946 0 0 0-2.943 2.944v24.649a.778.778 0 0 1-.778.778z" class="prefix__cls-3" data-name="Path 117" transform="translate(.889 2.029)"/>
        <path id="prefix__Path_118" d="M476.746 624.054a5.85 5.85 0 1 1 5.85-5.85 5.858 5.858 0 0 1-5.85 5.85zm0-10.143a4.293 4.293 0 1 0 4.293 4.293 4.3 4.3 0 0 0-4.293-4.293z" class="prefix__cls-3" data-name="Path 118" transform="translate(1.5 2.71)"/>
        <path id="prefix__Path_119" d="M484.031 602.36a2.414 2.414 0 1 1 2.413-2.414 2.417 2.417 0 0 1-2.413 2.414zm0-3.271a.858.858 0 1 0 .858.857.856.856 0 0 0-.858-.857z" class="prefix__cls-3" data-name="Path 119" transform="translate(2.628 1.194)"/>
        <path id="prefix__Path_120" d="M491.26 602.36a2.414 2.414 0 1 1 2.413-2.414 2.417 2.417 0 0 1-2.413 2.414zm0-3.271a.858.858 0 1 0 .858.857.857.857 0 0 0-.858-.857z" class="prefix__cls-3" data-name="Path 120" transform="translate(3.378 1.194)"/>
        <path id="prefix__Path_121" d="M485.73 630.961h-17.4v-.778a8.7 8.7 0 1 1 17.4 0zm-15.8-1.557h14.2a7.143 7.143 0 0 0-14.2 0z" class="prefix__cls-3" data-name="Path 121" transform="translate(1.223 3.662)"/>
        <path id="prefix__Path_122" d="M479.729 614.381a.78.78 0 0 1-.778-.778v-3.929h-.212a3.281 3.281 0 0 1-3.278-3.277v-11.85a3.281 3.281 0 0 1 3.278-3.277h19.74a3.281 3.281 0 0 1 3.278 3.277V606.4a3.281 3.281 0 0 1-3.278 3.277H487.16l-7.006 4.58a.778.778 0 0 1-.425.124zm-.99-21.556a1.724 1.724 0 0 0-1.722 1.721V606.4a1.724 1.724 0 0 0 1.722 1.721h.99a.778.778 0 0 1 .778.778v3.269l6-3.92a.782.782 0 0 1 .426-.127h11.55a1.724 1.724 0 0 0 1.717-1.721v-11.853a1.723 1.723 0 0 0-1.722-1.721z" class="prefix__cls-3" data-name="Path 122" transform="translate(1.92 .517)"/>
        <circle id="prefix__Ellipse_37" cx="1.098" cy="1.098" r="1.098" class="prefix__cls-3" data-name="Ellipse 37" transform="translate(456.53 652.074)"/>
        <circle id="prefix__Ellipse_38" cx="1.098" cy="1.098" r="1.098" class="prefix__cls-3" data-name="Ellipse 38" transform="translate(510.123 598.048)"/>
    </g>
</svg>
