<svg xmlns="http://www.w3.org/2000/svg" width="80" height="80" viewBox="0 0 80 80">
    <defs>
        <style>
            .prefix__cls-3{fill:#2b3b54}
        </style>
    </defs>
    <g id="prefix__Group_15" data-name="Group 15" transform="translate(-66.822 -585.461)">
        <path id="prefix__Rectangle_5" d="M0 0H80V80H0z" data-name="Rectangle 5" transform="translate(66.822 585.461)" style="opacity:0;fill:#d9e9f3"/>
        <circle id="prefix__Ellipse_17" cx="26.017" cy="26.017" r="26.017" data-name="Ellipse 17" transform="translate(70.468 605.821)" style="fill:#d9e9f3"/>
        <path id="prefix__Path_67" d="M104.2 624.173a15.7 15.7 0 0 1 0-31.4h.771v14.889H119.9v.77a15.724 15.724 0 0 1-15.7 15.741zm-.77-29.838a14.159 14.159 0 1 0 14.909 14.865h-14.911z" class="prefix__cls-3" data-name="Path 67" transform="translate(2.206 1.369)"/>
        <path id="prefix__Path_68" d="M120.283 606.155h-15.364V590.83h.771a14.617 14.617 0 0 1 14.59 14.553zm-13.823-1.541h12.255a13.079 13.079 0 0 0-12.255-12.221z" class="prefix__cls-3" data-name="Path 68" transform="translate(3.769 1.226)"/>
        <path id="prefix__Path_69" d="M132.01 640.278H79.972v-5.708h52.038zm-50.51-1.541h48.99v-2.626H81.5z" class="prefix__cls-3" data-name="Path 69" transform="translate(1.615 5.293)"/>
        <path id="prefix__Path_70" d="M125.831 637.851h-9.46v-20.679h9.46zm-7.92-1.541h6.38v-17.6h-6.38z" class="prefix__cls-3" data-name="Path 70" transform="translate(4.852 3.616)"/>
        <path id="prefix__Path_71" d="M114.521 637.249h-9.46v-14.062h9.46zm-7.92-1.541h6.38v-10.981H106.6z" class="prefix__cls-3" data-name="Path 71" transform="translate(3.808 4.2)"/>
        <path id="prefix__Path_72" d="M103.188 636.831h-9.461v-9.461h9.461zm-7.921-1.541h6.38v-6.379h-6.38z" class="prefix__cls-3" data-name="Path 72" transform="translate(2.761 4.608)"/>
        <path id="prefix__Path_73" d="M92.177 637.576h-9.46v-17.657h9.46zm-7.92-1.541h6.38v-14.576h-6.38z" class="prefix__cls-3" data-name="Path 73" transform="translate(1.745 3.883)"/>
        <g id="prefix__Group_13" data-name="Group 13" transform="translate(130.794 592.374)">
            <path id="prefix__Path_74" d="M129.546 594.316h-3.665a.771.771 0 0 1 0-1.541h3.665a.771.771 0 0 1 0 1.541z" class="prefix__cls-3" data-name="Path 74" transform="translate(-125.111 -590.942)"/>
            <path id="prefix__Path_75" d="M127.547 596.315a.77.77 0 0 1-.77-.77v-3.665a.77.77 0 1 1 1.54 0v3.665a.77.77 0 0 1-.77.77z" class="prefix__cls-3" data-name="Path 75" transform="translate(-124.944 -591.109)"/>
        </g>
        <g id="prefix__Group_14" data-name="Group 14" transform="translate(67.44 626.686)">
            <path id="prefix__Path_76" d="M71.546 625.715h-3.665a.77.77 0 0 1 0-1.54h3.665a.77.77 0 0 1 0 1.54z" class="prefix__cls-3" data-name="Path 76" transform="translate(-67.111 -622.342)"/>
            <path id="prefix__Path_77" d="M69.547 627.714a.769.769 0 0 1-.77-.77v-3.665a.77.77 0 1 1 1.54 0v3.665a.769.769 0 0 1-.77.77z" class="prefix__cls-3" data-name="Path 77" transform="translate(-66.944 -622.509)"/>
        </g>
        <circle id="prefix__Ellipse_18" cx="1.087" cy="1.087" r="1.087" class="prefix__cls-3" data-name="Ellipse 18" transform="translate(69.38 599.826)"/>
        <circle id="prefix__Ellipse_19" cx="1.087" cy="1.087" r="1.087" class="prefix__cls-3" data-name="Ellipse 19" transform="translate(140.453 651.73)"/>
    </g>
</svg>
